PathFileType	4	(X/Y/Z)	D:\telocate\uwb04-Unnamed.trc
DataRate	CameraRate	NumFrames	NumMarkers	Units	OrigDataRate	OrigDataStartFrame	OrigNumFrames
100.00	100.00	     132	0	mm	100.00	5009	     10016
Frame#	Time	
		

5009	50.080	-794.87482	833.57825	1170.33093	
5010	50.090	-798.87048	829.59003	1171.03247	
5011	50.100	-800.50146	826.59192	1171.56946	
5012	50.110	-799.74323	823.83582	1171.65723	
5013	50.120	-800.37714	821.52509	1171.73499	
5014	50.130	-801.41351	818.60016	1172.62378	
5015	50.140	-802.51556	815.78802	1172.27722	
5016	50.150	-807.14191	812.00214	1174.09949	
5017	50.160	-808.19440	809.49719	1174.55774	
5018	50.170	-808.11688	806.78479	1175.08508	
5019	50.180	-808.77948	804.31714	1175.89563	
5020	50.190	-809.51691	802.07788	1176.92700	
5021	50.200	-810.43646	799.49963	1177.89441	
5022	50.210	-810.94879	797.44135	1178.68848	
5023	50.220	-812.14276	795.44543	1179.32764	
5024	50.230	-813.59760	792.58038	1180.52612	
5025	50.240	-816.92725	789.73920	1181.58398	
5026	50.250	-818.48206	786.84735	1182.29749	
5027	50.260	-819.95258	784.21204	1182.70020	
5028	50.270	-821.61041	782.02216	1183.10962	
5029	50.280	-823.70062	778.78754	1183.43579	
5030	50.290	-825.90881	775.78400	1183.51282	
5031	50.300	-828.37878	772.77295	1183.59326	
5032	50.310	-830.21356	769.65973	1183.47937	
5033	50.320	-832.17902	766.82855	1183.88318	
5034	50.330	-834.32526	763.91040	1183.94800	
5035	50.340	-835.70190	761.29022	1183.88940	
5036	50.350	-837.82489	758.30640	1184.22620	
5037	50.360	-839.61755	755.29456	1183.74829	
5038	50.370	-842.06146	751.93268	1183.65613	
5039	50.380	-843.87085	749.20758	1183.86206	
5040	50.390	-845.95050	745.84088	1183.89673	
5041	50.400	-848.12036	743.03467	1183.57617	
5042	50.410	-850.38031	739.97375	1183.61096	
5043	50.420	-854.10895	736.43188	1183.80469	
5044	50.430	-856.27209	733.54681	1183.53943	
5045	50.440	-857.27258	730.23822	1182.63196	
5046	50.450	-859.38245	726.98846	1182.40430	
5047	50.460	-861.56714	723.52551	1181.73596	
5048	50.470	-864.42017	719.54901	1181.04492	
5049	50.480	-866.81854	716.60498	1180.85571	
5050	50.490	-870.17670	713.39587	1180.98450	
5051	50.500	-874.91241	709.75989	1180.85645	
5052	50.510	-877.20410	706.46570	1180.51062	
5053	50.520	-880.02191	703.11505	1180.43335	
5054	50.530	-883.09808	699.25439	1180.05029	
5055	50.540	-885.77332	696.54828	1179.44202	
5056	50.550	-888.47522	692.52924	1179.10278	
5057	50.560	-891.48370	688.92365	1178.77466	
5058	50.570	-893.91016	685.63635	1178.47034	
5059	50.580	-896.71454	682.11157	1178.16064	
5060	50.590	-899.34467	678.78723	1177.38525	
5061	50.600	-902.26813	675.61298	1177.64368	
5062	50.610	-904.79071	672.29718	1177.42627	
5063	50.620	-907.31506	669.22021	1177.45984	
5064	50.630	-911.64307	666.39355	1178.00903	
5065	50.640	-914.13098	662.98993	1178.39246	
5066	50.650	-914.45575	659.97699	1177.78589	
5067	50.660	-917.13696	656.99255	1177.39282	
5068	50.670	-921.23621	653.54071	1178.54724	
5069	50.680	-922.52271	650.12823	1177.90588	
5070	50.690	-924.85358	646.33307	1177.54272	
5071	50.700	-927.70166	643.60925	1177.22253	
5072	50.710	-932.34515	640.08856	1178.08057	
5073	50.720	-934.85529	636.64185	1178.14404	
5074	50.730	-938.03442	633.32532	1177.82178	
5075	50.740	-941.00201	629.87000	1177.91602	
5076	50.750	-943.84711	626.96747	1178.22559	
5077	50.760	-946.81879	623.87354	1178.24023	
5078	50.770	-949.01831	620.54199	1178.38098	
5079	50.780	-951.40143	617.63702	1178.68030	
5080	50.790	-953.80566	614.25757	1178.64587	
5081	50.800	-956.10022	611.81256	1178.91211	
5082	50.810	-958.62537	609.48376	1179.24829	
5083	50.820	-961.26935	606.21741	1179.91357	
5084	50.830	-963.72876	603.80408	1180.27551	
5085	50.840	-965.89441	601.47064	1180.70374	
5086	50.850	-969.93042	598.53430	1181.32153	
5087	50.860	-970.27814	596.31824	1181.03442	
5088	50.870	-972.31470	593.84363	1181.02966	
5089	50.880	-976.64850	591.74414	1182.48865	
5090	50.890	-976.55438	589.51575	1181.77209	
5091	50.900	-979.39227	586.85345	1182.28833	
5092	50.910	-981.57318	584.47968	1182.64282	
5093	50.920	-986.31525	582.11798	1184.29993	
5094	50.930	-988.51196	579.87201	1184.71240	
5095	50.940	-990.52484	577.32214	1184.93835	
5096	50.950	-993.27972	574.43597	1185.79163	
5097	50.960	-995.11206	572.51233	1185.19055	
5098	50.970	-998.44659	569.46399	1186.23230	
5099	50.980	-999.74261	567.72333	1185.84338	
5100	50.990	-1002.22943	564.85150	1186.45435	
5101	51.000	-1005.39630	561.43140	1187.38367	
5102	51.010	-1006.40424	559.94397	1187.21875	
5103	51.020	-1009.07721	556.57507	1187.95251	
5104	51.030	-1010.39917	554.58673	1187.82336	
5105	51.040	-1012.46344	552.16516	1188.14868	
5106	51.050	-1014.23755	549.74530	1188.30615	
5107	51.060	-1016.13574	547.69604	1188.45203	
5108	51.070	-1017.74518	545.41815	1188.54272	
5109	51.080	-1020.24316	542.28607	1188.69385	
5110	51.090	-1023.70917	540.38745	1189.55408	
5111	51.100	-1025.77295	537.42920	1189.69141	
5112	51.110	-1026.02136	534.12683	1189.21765	
5113	51.120	-1028.13098	531.86206	1188.51660	
5114	51.130	-1030.00537	529.15729	1188.23657	
5115	51.140	-1034.08386	525.79712	1189.35486	
5116	51.150	-1034.55823	522.93420	1188.84790	
5117	51.160	-1036.62561	519.81268	1188.68591	
5118	51.170	-1038.24243	517.33228	1188.42334	
5119	51.180	-1039.98633	514.49695	1188.40540	
5120	51.190	-1042.13171	512.20276	1188.30579	
5121	51.200	-1045.46106	509.79071	1188.78064	
5122	51.210	-1046.98779	506.36078	1188.79419	
5123	51.220	-1048.82776	503.93747	1188.54016	
5124	51.230	-1051.35278	501.22684	1188.91614	
5125	51.240	-1053.28906	497.89590	1188.59583	
5126	51.250	-1055.45654	495.16547	1188.41418	
5127	51.260	-1057.32434	491.95804	1188.21729	
5128	51.270	-1059.65015	489.39124	1187.75330	
5129	51.280	-1061.25854	486.07468	1187.12317	
5130	51.290	-1062.89209	483.28366	1186.93896	
5131	51.300	-1064.42627	479.72632	1186.39722	
5132	51.310	-1065.60620	477.03772	1186.04712	
5133	51.320	-1067.84509	473.39807	1185.75293	
5134	51.330	-1069.65479	470.40024	1185.66272	
5135	51.340	-1071.19055	467.81094	1185.29517	
5136	51.350	-1072.97449	464.82785	1185.29907	
5137	51.360	-1074.60986	461.89063	1184.90247	
5138	51.370	-1076.60974	458.73679	1184.61731	
5139	51.380	-1078.10352	455.83185	1184.28076	
5140	51.390	-1079.43152	452.74594	1184.24719	
